<?xml version="1.0" encoding="UTF-8"?>
<svg width="512" height="512" viewBox="0 0 512 512" fill="none" xmlns="http://www.w3.org/2000/svg">
  <path fill-rule="evenodd" clip-rule="evenodd" d="M256 512C397.385 512 512 397.385 512 256C512 114.615 397.385 0 256 0C114.615 0 0 114.615 0 256C0 397.385 114.615 512 256 512ZM256 448C361.856 448 448 361.856 448 256C448 150.144 361.856 64 256 64C150.144 64 64 150.144 64 256C64 361.856 150.144 448 256 448Z" fill="currentColor"/>
  <path d="M256 192C256 147.817 291.817 112 336 112C380.183 112 416 147.817 416 192C416 220.719 400.487 245.363 377.243 258.243C369.532 262.599 360.468 262.599 352.757 258.243C329.513 245.363 314 220.719 314 192Z" fill="currentColor"/>
  <path d="M256 192C256 147.817 220.183 112 176 112C131.817 112 96 147.817 96 192C96 220.719 111.513 245.363 134.757 258.243C142.468 262.599 151.532 262.599 159.243 258.243C182.487 245.363 198 220.719 198 192Z" fill="currentColor"/>
  <path d="M256 272C269.255 272 280 282.745 280 296V392C280 405.255 269.255 416 256 416C242.745 416 232 405.255 232 392V296C232 282.745 242.745 272 256 272Z" fill="currentColor"/>
</svg> 